<svg width="17" height="16" viewBox="0 0 17 16" fill="none" xmlns="http://www.w3.org/2000/svg">
<path d="M14.742 7.57801H16.4261C16.4261 3.25806 13.1647 0 8.83887 0V1.68419C12.2595 1.68419 14.742 4.16247 14.742 7.57801Z" fill="white"/>
<path d="M8.84721 5.05247C10.6181 5.05247 11.3735 5.80783 11.3735 7.57876H13.0577C13.0577 4.863 11.563 3.36828 8.84721 3.36828V5.05247ZM11.7289 9.636C11.567 9.48893 11.3544 9.41049 11.1359 9.41725C10.9173 9.424 10.7099 9.51542 10.5575 9.67221L8.54237 11.7446C8.05733 11.652 7.08218 11.348 6.0784 10.3467C5.07463 9.34211 4.77063 8.36443 4.68053 7.88276L6.75124 5.86678C6.90821 5.71447 6.99977 5.50706 7.00653 5.28843C7.01329 5.06981 6.93472 4.85714 6.78745 4.69543L3.67591 1.27399C3.52858 1.11177 3.32381 1.01337 3.1051 0.99969C2.88638 0.986011 2.67095 1.05813 2.50455 1.20073L0.677207 2.76787C0.531618 2.91399 0.444721 3.10846 0.433 3.31439C0.420368 3.52491 0.179529 8.5118 4.04643 12.3804C7.41986 15.753 11.6455 15.9997 12.8093 15.9997C12.9794 15.9997 13.0838 15.9947 13.1116 15.993C13.3175 15.9814 13.5118 15.8942 13.6573 15.7479L15.2236 13.9197C15.3663 13.7534 15.4385 13.5381 15.425 13.3194C15.4115 13.1007 15.3132 12.8958 15.1511 12.7484L11.7289 9.636Z" fill="white"/>
</svg>
