<svg width="16" height="20" viewBox="0 0 16 20" fill="none" xmlns="http://www.w3.org/2000/svg">
<path d="M7.92603 9.5C7.21562 9.5 6.53432 9.23661 6.03199 8.76777C5.52966 8.29893 5.24745 7.66304 5.24745 7C5.24745 6.33696 5.52966 5.70107 6.03199 5.23223C6.53432 4.76339 7.21562 4.5 7.92603 4.5C8.63643 4.5 9.31773 4.76339 9.82006 5.23223C10.3224 5.70107 10.6046 6.33696 10.6046 7C10.6046 7.3283 10.5353 7.65339 10.4007 7.95671C10.2661 8.26002 10.0688 8.53562 9.82006 8.76777C9.57133 8.99991 9.27605 9.18406 8.95107 9.3097C8.62609 9.43534 8.27778 9.5 7.92603 9.5ZM7.92603 0C5.9369 0 4.02925 0.737498 2.62272 2.05025C1.2162 3.36301 0.426025 5.14348 0.426025 7C0.426025 12.25 7.92603 20 7.92603 20C7.92603 20 15.426 12.25 15.426 7C15.426 5.14348 14.6358 3.36301 13.2293 2.05025C11.8228 0.737498 9.91515 0 7.92603 0Z" fill="white"/>
</svg>
