<svg width="19" height="13" viewBox="0 0 19 13" fill="none" xmlns="http://www.w3.org/2000/svg">
<path d="M2.22603 12.5C1.73103 12.5 1.30713 12.353 0.954327 12.059C0.601527 11.765 0.425427 11.412 0.426027 11V2C0.426027 1.5875 0.602427 1.23425 0.955227 0.940251C1.30803 0.646251 1.73163 0.499501 2.22603 0.500001H16.626C17.121 0.500001 17.5449 0.647001 17.8977 0.941001C18.2505 1.235 18.4266 1.588 18.426 2V11C18.426 11.4125 18.2496 11.7657 17.8968 12.0597C17.544 12.3537 17.1204 12.5005 16.626 12.5H2.22603ZM9.42603 7.25L16.626 3.5V2L9.42603 5.75L2.22603 2V3.5L9.42603 7.25Z" fill="white"/>
</svg>
